<svg xmlns="http://www.w3.org/2000/svg" version="1.1"
    xmlns:xlink="http://www.w3.org/1999/xlink"
    xmlns:svgjs="http://svgjs.com/svgjs" width="512" height="512" x="0" y="0" viewBox="0 0 64 64" style="enable-background:new 0 0 512 512" xml:space="preserve" class="" id="bugSvg">
    <g>
        <path xmlns="http://www.w3.org/2000/svg" d="M45.671,26.062c-.153-.361-.315-.714-.481-1.062H18.81c-.166.348-.328.7-.481,1.062A13.979,13.979,0,0,1,31.021,38.871L32,50.3l.979-11.425A13.979,13.979,0,0,1,45.671,26.062Z" fill="#000000" data-original="#000000" style="" class=""></path>
        <path xmlns="http://www.w3.org/2000/svg" d="M17.584,28.027A31.39,31.39,0,0,0,16,38c0,12.153,6.592,22.128,14.906,22.94l-1.878-21.9A11.987,11.987,0,0,0,17.584,28.027Z" fill="#000000" data-original="#000000" style="" class=""></path>
        <path xmlns="http://www.w3.org/2000/svg" d="M32,15c-4.838,0-9.177,3.107-12.114,8H44.114C41.177,18.107,36.838,15,32,15Z" fill="#000000" data-original="#000000" style="" class=""></path>
        <path xmlns="http://www.w3.org/2000/svg" d="M25.484,14.7a13.324,13.324,0,0,1,13.032,0C37.491,11.33,34.951,9,32,9S26.509,11.33,25.484,14.7Z" fill="#000000" data-original="#000000" style="" class=""></path>
        <path xmlns="http://www.w3.org/2000/svg" d="M34.972,39.042l-1.878,21.9C41.408,60.128,48,50.153,48,38a31.39,31.39,0,0,0-1.584-9.973A11.987,11.987,0,0,0,34.972,39.042Z" fill="#000000" data-original="#000000" style="" class=""></path>
        <path xmlns="http://www.w3.org/2000/svg" d="M38.252,3.425A.954.954,0,0,1,39.046,3,.966.966,0,0,1,40,4a1,1,0,0,1-1,1V7a3.014,3.014,0,0,0,3-3.046,2.954,2.954,0,0,0-5.412-1.639L33.373,7.137a7.73,7.73,0,0,1,1.975.643Z" fill="#000000" data-original="#000000" style="" class=""></path>
        <path xmlns="http://www.w3.org/2000/svg" d="M25,7V5a1.012,1.012,0,0,1-1-1.046.954.954,0,0,1,1.748-.529l2.9,4.355a7.73,7.73,0,0,1,1.975-.643L27.412,2.315A2.954,2.954,0,0,0,22,4,3,3,0,0,0,25,7Z" fill="#000000" data-original="#000000" style="" class=""></path>
        <path xmlns="http://www.w3.org/2000/svg" d="M60.206,40.146A12.034,12.034,0,0,1,56,31a1,1,0,0,0-1.447-.894L49.572,32.6q.165,1.037.266,2.1l4.25-2.125a14.025,14.025,0,0,0,4.817,9.09l2.445,2.094,1.3-1.518Z" fill="#000000" data-original="#000000" style="" class=""></path>
        <path xmlns="http://www.w3.org/2000/svg" d="M54,53.964a11.085,11.085,0,0,1,.569-3.511l1.379-4.137a1,1,0,0,0-.674-1.277l-5.7-1.63c-.107.667-.229,1.327-.373,1.973l4.523,1.293L52.672,49.82a13.112,13.112,0,0,0,1.949,12.009l.579.771,1.6-1.2-.579-.772A11.178,11.178,0,0,1,54,53.964Z" fill="#000000" data-original="#000000" style="" class=""></path>
        <path xmlns="http://www.w3.org/2000/svg" d="M14.162,34.7q.1-1.067.266-2.1l-4.981-2.49A1,1,0,0,0,8,31a12.034,12.034,0,0,1-4.206,9.146L1.35,42.241l1.3,1.518L5.1,41.665a14.025,14.025,0,0,0,4.817-9.09Z" fill="#000000" data-original="#000000" style="" class=""></path>
        <path xmlns="http://www.w3.org/2000/svg" d="M14.429,43.409l-5.7,1.63a1,1,0,0,0-.674,1.277L9.43,50.452A11.069,11.069,0,0,1,10,53.964a11.178,11.178,0,0,1-2.221,6.664L7.2,61.4l1.6,1.2.579-.771A13.2,13.2,0,0,0,12,53.964a13.1,13.1,0,0,0-.673-4.144l-1.048-3.145L14.8,45.382C14.658,44.736,14.536,44.076,14.429,43.409Z" fill="#000000" data-original="#000000" style="" class=""></path>
        <path xmlns="http://www.w3.org/2000/svg" d="M52.563,17.879l6.711-1.918-.548-1.922-7,2a.988.988,0,0,0-.485.31L46.052,22.4q.531.919,1,1.908Z" fill="#000000" data-original="#000000" style="" class=""></path>
        <path xmlns="http://www.w3.org/2000/svg" d="M16.95,24.311q.466-.988,1-1.908l-5.189-6.054a.988.988,0,0,0-.485-.31l-7-2-.548,1.922,6.711,1.918Z" fill="#000000" data-original="#000000" style="" class=""></path>
    </g>
</svg>